<svg width="32" height="32" viewBox="0 0 32 32" fill="none" xmlns="http://www.w3.org/2000/svg">
<path d="M29.3333 0H2.66667C1.95942 0 1.28115 0.280952 0.781049 0.781049C0.280952 1.28115 0 1.95942 0 2.66667L0 29.3333C0 30.0406 0.280952 30.7189 0.781049 31.219C1.28115 31.719 1.95942 32 2.66667 32H29.3333C30.0406 32 30.7189 31.719 31.219 31.219C31.719 30.7189 32 30.0406 32 29.3333V2.66667C32 1.95942 31.719 1.28115 31.219 0.781049C30.7189 0.280952 30.0406 0 29.3333 0V0ZM21.84 8.70667H20.3733C18.7733 8.70667 18.1867 9.06667 18.1867 10.16V13.08H21.8267L21.0933 16.72H18.1867V26.9333H13.8133V16.7333H10.1733V13.08H13.8133V10.1733C13.7521 9.48735 13.8421 8.79628 14.0771 8.14889C14.312 7.50149 14.6862 6.91356 15.1732 6.42656C15.6602 5.93957 16.2482 5.56538 16.8956 5.33041C17.5429 5.09544 18.234 5.00541 18.92 5.06667H21.84V8.70667Z" fill="#333333"/>
</svg>
