<svg width="123" height="60" viewBox="0 0 123 60" fill="none" xmlns="http://www.w3.org/2000/svg">
<g clip-path="url(#clip0_283_49)">
<path d="M23.7125 2.55173C23.6197 1.99727 20.5049 1.08638 18.9806 2.32731C16.4622 4.38671 0.848296 31.687 0 38.9213C0.023638 39.8257 0.370268 40.692 0.977623 41.3646C1.58498 42.0373 2.41325 42.4722 3.31366 42.5913C2.88951 36.8223 20.2133 3.2382 23.7125 2.55173Z" fill="#333333"/>
<path d="M30.4857 33.7448C25.5683 34.4973 19.882 24.8339 19.1398 22.0089C28.6963 12.9396 46.3117 1.46762 48.7771 2.98577C48.7771 1.92967 47.5576 -0.0769307 44.6814 0.00227715C40.9171 0.107888 20.5978 15.6458 14.1958 21.5732C17.2841 29.2036 23.5536 36.0947 26.2707 36.4247C27.1864 36.6252 28.1446 36.4556 28.9348 35.9532C29.7251 35.4507 30.2828 34.6565 30.4857 33.7448Z" fill="#333333"/>
<path d="M82.0063 29.7431C75.1742 29.0366 68.2779 29.2453 61.5014 30.3636C64.4303 23.9544 66.8716 17.3351 68.8047 10.5616C69.3879 8.55496 66.1538 7.68367 65.7031 8.72658C63.4101 14.4824 56.5177 23.248 55.4308 22.7068C53.5884 21.8487 58.4131 12.8322 59.2614 11.6177C60.1097 10.4031 57.0876 8.23813 56.0405 9.9015C53.9993 13.2018 46.5635 24.3306 44.9464 23.6309C43.7933 23.1424 45.6091 19.8289 46.3514 18.6144C46.9611 17.5979 44.2969 15.6441 43.4354 16.8982C42.3087 18.5088 35.6019 27.4593 34.5548 26.1391C34.2102 25.6771 35.2573 22.9972 37.3515 20.0005C43.0643 11.8949 45.7947 13.4659 45.4103 16.1985C47.1069 13.9147 46.5502 10.786 44.35 10.6408C39.3265 10.2975 27.2117 25.3207 31.0953 29.2546C33.4149 31.5913 37.895 28.0269 40.7845 24.8058C40.8641 25.3071 41.0602 25.7829 41.357 26.1955C41.6539 26.608 42.0433 26.9458 42.4943 27.182C44.9332 28.357 48.7107 24.4494 51.4942 20.4626C50.9242 23.4329 51.3219 26.4032 54.2512 26.5748C57.1804 26.7464 60.5736 21.9543 62.6148 18.654C61.1216 22.9399 59.3506 27.1247 57.313 31.182C35.1115 35.8025 16.5418 48.1062 24.6271 57.3471C29.9289 63.4461 46.2719 60.291 59.6458 34.2448C66.9664 32.9311 74.4378 32.6643 81.834 33.4527C88.3288 34.1919 93.0077 35.8289 94.7308 37.6639C95.9104 33.5583 90.5555 30.72 82.0063 29.7431ZM27.8347 54.9048C22.9835 49.3603 36.3442 39.4857 55.1127 35.1028C44.5753 53.5451 31.9039 59.4989 27.8347 54.9048Z" fill="#333333"/>
<path d="M120.471 12.4124C118.934 12.2408 111.537 14.5642 106.739 16.0032C106.951 12.5708 106.739 8.92726 107.707 7.01307C109.165 6.48502 110.358 5.44211 110.57 4.50482C110.782 3.56752 108.688 2.07577 105.851 4.04277C102.829 6.18139 98.7468 10.8283 95.1415 12.1352C95.2349 11.6153 95.3013 11.0909 95.3403 10.5642C95.4331 7.3563 93.604 5.89096 91.1254 6.20779C88.8986 6.49822 85.8235 10.0494 84.0474 13.9834C81.1314 18.1154 76.9164 21.9966 76.0946 21.5345C75.0077 20.9141 79.2359 16.5576 79.448 14.5906C79.5673 13.3629 77.9237 11.5147 77.8177 9.91737C77.8177 9.3233 79.1432 8.2672 79.289 7.62033C79.2527 7.09169 79.0577 6.58614 78.7291 6.16942C78.4005 5.75269 77.9536 5.44407 77.4466 5.28369C76.3464 7.18469 72.4098 11.8844 70.1963 12.2804C70.1963 13.5081 71.0578 14.7755 71.9459 14.8019C72.834 14.8283 74.3185 13.2045 75.4054 11.8844C75.7465 12.6124 75.9787 13.3863 76.0946 14.1814C76.0946 15.6731 71.8134 19.7524 71.4555 22.8283C71.3993 23.1623 71.412 23.5042 71.4928 23.8332C71.5736 24.1621 71.7208 24.4713 71.9254 24.7418C72.13 25.0122 72.3878 25.2384 72.683 25.4065C72.9782 25.5746 73.3047 25.681 73.6425 25.7194C76.2934 26.023 80.0975 22.419 82.4966 19.6071C82.4966 19.8052 82.4966 20.0032 82.4966 20.188C82.4745 20.7401 82.5667 21.2908 82.7676 21.8058C82.9684 22.3209 83.2735 22.7893 83.6639 23.1818C84.0543 23.5744 84.5216 23.8827 85.0368 24.0876C85.552 24.2925 86.104 24.3896 86.6585 24.3728C89.4553 24.3728 92.4641 20.0296 94.1076 15.7128C96.1091 15.4751 100.523 12.0824 103.624 9.11208C103.267 11.3959 103.452 14.3926 103.253 16.9141C101.291 17.5435 99.1949 17.6392 97.1827 17.1913C96.1356 16.7953 94.6908 19.2111 95.4861 20.3596C98.8263 25.1517 102.511 25.1121 104.764 22.5378C105.651 21.4305 106.215 20.1015 106.395 18.6963C110.663 17.5345 117.383 15.6335 120.02 15.0791C120.975 14.8679 121.916 14.7755 122.247 15.1451C122.42 14.6566 122.128 12.6104 120.471 12.4124ZM86.632 21.1253C85.7307 20.8745 86.4597 17.3101 87.9575 14.353C89.283 11.7127 91.1916 9.07248 92.1062 9.23089C92.5568 9.3233 92.6231 10.0098 92.4376 11.0263C92.0931 11.1771 91.7848 11.3993 91.5332 11.678C91.2815 11.9567 91.0924 12.2856 90.9783 12.6427C90.8642 12.9999 90.8278 13.3772 90.8714 13.7494C90.915 14.1217 91.0378 14.4805 91.2314 14.8019C89.8264 18.0362 87.7587 21.4289 86.632 21.1253ZM101.066 21.2177C100.543 21.2857 100.011 21.1963 99.5383 20.9611C99.066 20.7259 98.675 20.3556 98.4154 19.8976C99.881 20.0329 101.359 19.9258 102.789 19.5807C102.683 19.986 102.465 20.3537 102.161 20.6428C101.857 20.9319 101.478 21.1309 101.066 21.2177Z" fill="#333333"/>
<path d="M60.5205 44.4629H63.9137V45.3474H61.5279V48.4629H63.7547V49.321H61.5279V53.3606H60.5205V44.4629Z" fill="#B0976E"/>
<path d="M65.2261 44.4629H66.2732V52.5025H68.7916V53.3606H65.2261V44.4629Z" fill="#B0976E"/>
<path d="M71.0314 50.6947L70.4217 53.335H69.4541L71.482 44.4373H72.6087L74.5968 53.335H73.5895L72.993 50.6947H71.0314ZM72.9003 49.8762L72.4363 47.6188C72.3038 46.9851 72.1845 46.2986 72.0785 45.5858C71.9724 46.259 71.8399 47.0247 71.7339 47.6188L71.27 49.8762H72.9003Z" fill="#B0976E"/>
<path d="M78.8916 53.3591L78.0831 51.2205C77.8975 50.732 77.7384 50.27 77.5529 49.6627C77.3541 50.2568 77.1818 50.7716 77.0094 51.2469L76.2539 53.3591H75.1538L76.9962 48.8442L75.2201 44.4878H76.2804L77.0625 46.5472C77.2348 46.9564 77.3806 47.3789 77.6059 47.9597C77.818 47.3393 77.9373 46.9432 78.0831 46.5076L78.8121 44.4878H79.8592L78.1228 48.8442L79.9652 53.4119L78.8916 53.3591Z" fill="#B0976E"/>
<path d="M87.1887 53.2049C86.7723 53.3884 86.3178 53.4699 85.8632 53.4425C84.1269 53.4425 82.8677 52.0431 82.8677 49.02C82.8677 45.5084 84.6173 44.3863 86.0223 44.3863C86.4066 44.364 86.7902 44.4413 87.1357 44.6108L86.9103 45.4688C86.629 45.3364 86.32 45.2731 86.009 45.284C85.0547 45.284 83.9413 46.2081 83.9413 48.9276C83.9413 51.6471 85.0017 52.5448 86.1548 52.5448C86.4793 52.5483 86.8006 52.4807 87.0959 52.3468L87.1887 53.2049Z" fill="#B0976E"/>
<path d="M88.3687 44.4629H89.3892V52.5025H91.9076V53.3606H88.3687V44.4629Z" fill="#B0976E"/>
<path d="M97.1961 48.8489C97.1961 52.1888 96.0429 53.4694 94.5451 53.4694C93.0473 53.4694 92.146 51.8984 92.146 48.8489C92.146 45.7994 93.1931 44.3076 94.797 44.3076C96.4008 44.3076 97.1961 46.0106 97.1961 48.8489ZM93.2196 48.8489C93.2196 50.6839 93.5908 52.5057 94.7042 52.5057C95.8176 52.5057 96.1622 50.5651 96.1622 48.8225C96.1622 47.0799 95.8574 45.1921 94.6909 45.1921C93.5245 45.1921 93.1931 47.1063 93.1931 48.9149L93.2196 48.8489Z" fill="#B0976E"/>
<path d="M99.2905 45.3738H97.6602V44.4629H101.928V45.3738H100.298V53.3606H99.2905V45.3738Z" fill="#B0976E"/>
<path d="M104.075 44.4629V48.2781H106.58V44.4629H107.601V53.3606H106.58V49.2022H104.075V53.3606H103.068V44.4629H104.075Z" fill="#B0976E"/>
<path d="M110.358 44.4629V53.3606H109.337V44.4629H110.358Z" fill="#B0976E"/>
<path d="M112.108 53.3606V44.4629H113.062L114.706 48.6345C115.077 49.585 115.541 50.7731 115.846 51.7368C115.766 50.3375 115.726 49.189 115.726 47.6444V44.4629H116.641V53.3606H115.673L113.99 49.0834C113.632 48.1857 113.261 47.1692 112.943 46.0603C113.022 47.2484 113.036 48.3837 113.036 50.2847V53.3606H112.108Z" fill="#B0976E"/>
<path d="M122.791 53.1357C122.283 53.3301 121.744 53.4329 121.2 53.4393C120.806 53.4596 120.412 53.3918 120.047 53.2411C119.683 53.0903 119.357 52.8604 119.093 52.568C118.316 51.5581 117.938 50.299 118.032 49.0301C118.032 45.5713 119.808 44.3832 121.386 44.3832C121.841 44.3589 122.296 44.4449 122.711 44.634L122.486 45.5053C122.163 45.3539 121.809 45.2815 121.452 45.2941C120.352 45.2941 119.132 46.1786 119.132 48.9377C119.132 51.6967 120.179 52.568 121.253 52.568C121.466 52.5786 121.679 52.5426 121.876 52.4624V49.5581H120.617V48.7132H122.738L122.791 53.1357Z" fill="#B0976E"/>
</g>
<defs>
<clipPath id="clip0_283_49">
<rect width="122.791" height="60" fill="white"/>
</clipPath>
</defs>
</svg>
