<svg width="32" height="32" viewBox="0 0 32 32" fill="none" xmlns="http://www.w3.org/2000/svg">
<path d="M16.0002 18.6668C17.4729 18.6668 18.6668 17.4729 18.6668 16.0002C18.6668 14.5274 17.4729 13.3335 16.0002 13.3335C14.5274 13.3335 13.3335 14.5274 13.3335 16.0002C13.3335 17.4729 14.5274 18.6668 16.0002 18.6668Z" fill="#333333"/>
<path d="M20 8H12C10.9391 8 9.92172 8.42143 9.17157 9.17157C8.42143 9.92172 8 10.9391 8 12V20C8 21.0609 8.42143 22.0783 9.17157 22.8284C9.92172 23.5786 10.9391 24 12 24H20C21.0609 24 22.0783 23.5786 22.8284 22.8284C23.5786 22.0783 24 21.0609 24 20V12C24 10.9391 23.5786 9.92172 22.8284 9.17157C22.0783 8.42143 21.0609 8 20 8ZM16 21.3333C14.9452 21.3333 13.914 21.0205 13.037 20.4345C12.1599 19.8485 11.4763 19.0155 11.0726 18.041C10.669 17.0664 10.5634 15.9941 10.7691 14.9595C10.9749 13.925 11.4829 12.9746 12.2288 12.2288C12.9746 11.4829 13.925 10.9749 14.9595 10.7691C15.9941 10.5634 17.0664 10.669 18.041 11.0726C19.0155 11.4763 19.8485 12.1599 20.4345 13.037C21.0205 13.914 21.3333 14.9452 21.3333 16C21.3333 17.4145 20.7714 18.771 19.7712 19.7712C18.771 20.7714 17.4145 21.3333 16 21.3333ZM21.3333 12C21.0696 12 20.8118 11.9218 20.5926 11.7753C20.3733 11.6288 20.2024 11.4205 20.1015 11.1769C20.0006 10.9333 19.9742 10.6652 20.0256 10.4065C20.0771 10.1479 20.2041 9.91033 20.3905 9.72386C20.577 9.53739 20.8146 9.4104 21.0732 9.35895C21.3319 9.30751 21.5999 9.33391 21.8436 9.43483C22.0872 9.53574 22.2955 9.70664 22.442 9.92591C22.5885 10.1452 22.6667 10.403 22.6667 10.6667C22.6667 11.0203 22.5262 11.3594 22.2761 11.6095C22.0261 11.8595 21.687 12 21.3333 12Z" fill="#333333"/>
<path d="M29.3333 0H2.66667C1.95942 0 1.28115 0.280952 0.781049 0.781049C0.280952 1.28115 0 1.95942 0 2.66667L0 29.3333C0 30.0406 0.280952 30.7189 0.781049 31.219C1.28115 31.719 1.95942 32 2.66667 32H29.3333C30.0406 32 30.7189 31.719 31.219 31.219C31.719 30.7189 32 30.0406 32 29.3333V2.66667C32 1.95942 31.719 1.28115 31.219 0.781049C30.7189 0.280952 30.0406 0 29.3333 0V0ZM26.6667 20C26.6667 21.7681 25.9643 23.4638 24.714 24.714C23.4638 25.9643 21.7681 26.6667 20 26.6667H12C10.2319 26.6667 8.5362 25.9643 7.28596 24.714C6.03571 23.4638 5.33333 21.7681 5.33333 20V12C5.33333 10.2319 6.03571 8.5362 7.28596 7.28596C8.5362 6.03571 10.2319 5.33333 12 5.33333H20C21.7681 5.33333 23.4638 6.03571 24.714 7.28596C25.9643 8.5362 26.6667 10.2319 26.6667 12V20Z" fill="#333333"/>
</svg>
