<svg width="25" height="25" viewBox="0 0 25 25" fill="none" xmlns="http://www.w3.org/2000/svg">
<path d="M12.499 0.977539C9.37033 0.977539 8.97802 0.9908 7.7493 1.04686C6.52313 1.10284 5.68571 1.29755 4.95291 1.58234C4.19537 1.87675 3.55293 2.27065 2.9125 2.91108C2.27207 3.55151 1.87816 4.19395 1.58376 4.95149C1.29897 5.68424 1.10425 6.52167 1.04828 7.74783C0.992219 8.97656 0.979004 9.36887 0.979004 12.4975C0.979004 15.6261 0.992219 16.0184 1.04828 17.2472C1.10425 18.4733 1.29897 19.3108 1.58376 20.0435C1.87816 20.801 2.27207 21.4435 2.9125 22.084C3.55293 22.7244 4.19537 23.1183 4.95291 23.4127C5.68571 23.6975 6.52313 23.8922 7.7493 23.9481C8.97802 24.0042 9.37033 24.0175 12.499 24.0175C15.6276 24.0175 16.0199 24.0042 17.2486 23.9481C18.4748 23.8922 19.3122 23.6975 20.045 23.4127C20.8025 23.1183 21.445 22.7244 22.0854 22.084C22.7259 21.4435 23.1198 20.801 23.4142 20.0435C23.6989 19.3108 23.8937 18.4733 23.9496 17.2472C24.0057 16.0184 24.0189 15.6261 24.0189 12.4975C24.0189 9.36887 24.0057 8.97656 23.9496 7.74783C23.8937 6.52167 23.6989 5.68424 23.4142 4.95149C23.1198 4.19395 22.7259 3.55151 22.0854 2.91108C21.445 2.27065 20.8025 1.87675 20.045 1.58234C19.3122 1.29755 18.4748 1.10284 17.2486 1.04686C16.0199 0.9908 15.6276 0.977539 12.499 0.977539ZM12.499 3.05325C15.5749 3.05325 15.9393 3.06496 17.154 3.12038C18.2772 3.17164 18.8872 3.35931 19.2931 3.51703C19.8308 3.72601 20.2146 3.97569 20.6177 4.37878C21.0208 4.78188 21.2705 5.16568 21.4794 5.70336C21.6372 6.10929 21.8249 6.71926 21.8761 7.84245C21.9315 9.05718 21.9433 9.42155 21.9433 12.4975C21.9433 15.5735 21.9315 15.9378 21.8761 17.1526C21.8249 18.2757 21.6372 18.8857 21.4794 19.2916C21.2705 19.8294 21.0208 20.2131 20.6177 20.6162C20.2146 21.0194 19.8308 21.269 19.2931 21.478C18.8872 21.6357 18.2772 21.8234 17.154 21.8746C15.9395 21.93 15.5751 21.9418 12.499 21.9418C9.42278 21.9418 9.05851 21.93 7.84391 21.8746C6.72073 21.8234 6.11075 21.6357 5.70482 21.478C5.1671 21.269 4.78334 21.0194 4.3802 20.6162C3.9771 20.2131 3.72743 19.8294 3.51849 19.2916C3.36073 18.8857 3.17306 18.2757 3.1218 17.1526C3.06637 15.9378 3.05467 15.5735 3.05467 12.4975C3.05467 9.42155 3.06637 9.05718 3.1218 7.84245C3.17306 6.71926 3.36073 6.10929 3.51849 5.70336C3.72743 5.16568 3.9771 4.78188 4.3802 4.37878C4.78334 3.97569 5.1671 3.72601 5.70482 3.51703C6.11075 3.35931 6.72073 3.17164 7.84391 3.12038C9.05864 3.06496 9.42301 3.05325 12.499 3.05325Z" fill="white"/>
<path d="M12.4992 16.3362C10.3784 16.3362 8.65916 14.617 8.65916 12.4962C8.65916 10.3754 10.3784 8.65623 12.4992 8.65623C14.6199 8.65623 16.3391 10.3754 16.3391 12.4962C16.3391 14.617 14.6199 16.3362 12.4992 16.3362ZM12.4992 6.58057C9.232 6.58057 6.5835 9.22907 6.5835 12.4962C6.5835 15.7634 9.232 18.4119 12.4992 18.4119C15.7663 18.4119 18.4148 15.7634 18.4148 12.4962C18.4148 9.22907 15.7663 6.58057 12.4992 6.58057Z" fill="white"/>
<path d="M20.0304 6.3543C20.0304 7.11778 19.4115 7.73667 18.648 7.73667C17.8846 7.73667 17.2656 7.11778 17.2656 6.3543C17.2656 5.59081 17.8846 4.97192 18.648 4.97192C19.4115 4.97192 20.0304 5.59081 20.0304 6.3543Z" fill="white"/>
</svg>
