<svg width="92" height="45" viewBox="0 0 92 45" fill="none" xmlns="http://www.w3.org/2000/svg">
<g clip-path="url(#clip0_283_160)">
<path d="M17.7664 1.90896C17.6969 1.49354 15.3631 0.811062 14.2211 1.74081C12.3342 3.28381 0.635579 23.7384 0 29.1586C0.0177106 29.8362 0.277421 30.4853 0.732476 30.9893C1.18753 31.4933 1.80811 31.8191 2.48273 31.9083C2.16494 27.586 15.1446 2.42329 17.7664 1.90896Z" fill="white"/>
<path d="M22.8413 25.2814C19.157 25.8451 14.8966 18.6049 14.3405 16.4883C21.5007 9.69316 34.6988 1.0979 36.546 2.23536C36.546 1.44408 35.6323 -0.0593488 33.4773 -2.84775e-06C30.657 0.0791251 15.4329 11.7208 10.6362 16.1619C12.9501 21.8789 17.6475 27.042 19.6833 27.2892C20.3694 27.4394 21.0872 27.3124 21.6793 26.9359C22.2714 26.5595 22.6893 25.9644 22.8413 25.2814Z" fill="white"/>
<path d="M61.4424 22.2844C56.3235 21.7551 51.1565 21.9114 46.0793 22.7493C48.2738 17.9472 50.1029 12.9878 51.5513 7.91279C51.9882 6.40936 49.5651 5.75656 49.2274 6.53794C47.5094 10.8504 42.3453 17.418 41.531 17.0125C40.1506 16.3696 43.7654 9.61404 44.401 8.70407C45.0366 7.7941 42.7723 6.17198 41.9878 7.41824C40.4584 9.89099 34.8872 18.2291 33.6756 17.7049C32.8116 17.3389 34.1722 14.8563 34.7283 13.9463C35.1851 13.1847 33.189 11.7208 32.5435 12.6605C31.6994 13.8672 26.6743 20.5733 25.8898 19.5842C25.6316 19.238 26.4161 17.2301 27.9852 14.9848C32.2654 8.91178 34.3112 10.0888 34.0232 12.1362C35.2943 10.4251 34.8772 8.08094 33.2287 7.97214C29.4649 7.71497 20.388 18.9709 23.2978 21.9184C25.0357 23.6691 28.3924 20.9986 30.5573 18.5852C30.617 18.9608 30.7639 19.3173 30.9863 19.6264C31.2087 19.9354 31.5005 20.1886 31.8384 20.3655C33.6657 21.2458 36.496 18.3181 38.5815 15.331C38.1544 17.5565 38.4524 19.782 40.6471 19.9106C42.8418 20.0391 45.3842 16.4487 46.9135 13.976C45.7948 17.1871 44.4679 20.3226 42.9412 23.3625C26.3069 26.8244 12.3937 36.0428 18.4515 42.9665C22.4239 47.5361 34.6687 45.1721 44.689 25.6572C50.1739 24.6729 55.7718 24.4731 61.3133 25.0638C66.1795 25.6177 69.6851 26.8441 70.9761 28.219C71.86 25.1429 67.8479 23.0163 61.4424 22.2844ZM20.8548 41.1366C17.2201 36.9824 27.2304 29.584 41.2926 26.3001C33.3975 40.1179 23.9036 44.5787 20.8548 41.1366Z" fill="white"/>
<path d="M90.2622 9.29754C89.1102 9.16896 83.5688 10.9098 79.9738 11.9879C80.1327 9.41624 79.9738 6.68632 80.6987 5.25212C81.7911 4.85648 82.6849 4.07509 82.8438 3.37283C83.0027 2.67057 81.4336 1.55288 79.3084 3.02664C77.0442 4.62899 73.9854 8.11062 71.2842 9.08983C71.3542 8.70031 71.404 8.30744 71.4332 7.9128C71.5027 5.50929 70.1322 4.41139 68.2752 4.64877C66.6068 4.86637 64.3028 7.52705 62.9721 10.4746C60.7872 13.5705 57.6292 16.4784 57.0135 16.1322C56.1992 15.6674 59.3671 12.4033 59.526 10.9296C59.6154 10.0097 58.384 8.62496 58.3045 7.42814C58.3045 6.98305 59.2976 6.19177 59.4068 5.70711C59.3797 5.31103 59.2335 4.93225 58.9874 4.62002C58.7412 4.30779 58.4064 4.07656 58.0265 3.9564C57.2022 5.3807 54.2527 8.9019 52.5942 9.19863C52.5942 10.1185 53.2397 11.068 53.9051 11.0878C54.5705 11.1076 55.6828 9.891 56.4971 8.9019C56.7527 9.44738 56.9267 10.0272 57.0135 10.6229C57.0135 11.7406 53.8058 14.7969 53.5377 17.1016C53.4956 17.3518 53.5051 17.608 53.5656 17.8545C53.6262 18.1009 53.7364 18.3326 53.8898 18.5352C54.0431 18.7379 54.2362 18.9073 54.4574 19.0333C54.6785 19.1592 54.9232 19.2389 55.1763 19.2677C57.1625 19.4952 60.0126 16.7949 61.8101 14.6881C61.8101 14.8365 61.8101 14.9849 61.8101 15.1233C61.7936 15.537 61.8627 15.9496 62.0132 16.3355C62.1636 16.7214 62.3922 17.0723 62.6847 17.3664C62.9772 17.6605 63.3274 17.8915 63.7134 18.0451C64.0994 18.1986 64.513 18.2713 64.9284 18.2588C67.0239 18.2588 69.2782 15.0047 70.5096 11.7703C72.0092 11.5923 75.3162 9.05027 77.64 6.82479C77.3719 8.53594 77.5109 10.7812 77.362 12.6704C75.8915 13.142 74.3212 13.2137 72.8136 12.8781C72.029 12.5814 70.9466 14.3914 71.5424 15.2519C74.045 18.8424 76.8058 18.8127 78.4941 16.8839C79.1586 16.0543 79.5812 15.0585 79.7156 14.0057C82.9133 13.1353 87.9483 11.7109 89.9246 11.2955C90.6396 11.1373 91.3447 11.068 91.593 11.345C91.7221 10.979 91.5036 9.44591 90.2622 9.29754ZM64.9086 15.8256C64.2333 15.6377 64.7795 12.9671 65.9017 10.7515C66.8948 8.77332 68.3248 6.79512 69.01 6.91381C69.3477 6.98305 69.3974 7.49738 69.2583 8.25899C69.0002 8.37201 68.7692 8.53846 68.5807 8.74728C68.3922 8.95611 68.2505 9.20251 68.165 9.47011C68.0795 9.73772 68.0522 10.0204 68.0849 10.2993C68.1176 10.5782 68.2095 10.847 68.3546 11.0878C67.3019 13.5111 65.7527 16.0531 64.9086 15.8256ZM75.7234 15.8948C75.331 15.9458 74.9324 15.8788 74.5785 15.7026C74.2246 15.5264 73.9317 15.2489 73.7372 14.9057C74.8352 15.0071 75.9426 14.9269 77.0144 14.6684C76.9346 14.972 76.7716 15.2475 76.5436 15.4641C76.3156 15.6807 76.0316 15.8298 75.7234 15.8948Z" fill="white"/>
<path d="M45.3447 33.3129H47.887V33.9755H46.0995V36.3098H47.7678V36.9527H46.0995V39.9794H45.3447V33.3129Z" fill="white" fill-opacity="0.5"/>
<path d="M48.8701 33.3129H49.6547V39.3365H51.5415V39.9794H48.8701V33.3129Z" fill="white" fill-opacity="0.5"/>
<path d="M53.2199 37.9814L52.763 39.9596H52.0381L53.5575 33.2931H54.4016L55.8913 39.9596H55.1365L54.6896 37.9814H53.2199ZM54.6201 37.3681L54.2725 35.6768C54.1732 35.202 54.0838 34.6877 54.0044 34.1536C53.925 34.658 53.8256 35.2317 53.7462 35.6768L53.3986 37.3681H54.6201Z" fill="white" fill-opacity="0.5"/>
<path d="M59.1086 39.9794L58.5028 38.377C58.3638 38.0111 58.2446 37.6649 58.1056 37.2099C57.9566 37.655 57.8275 38.0407 57.6984 38.3968L57.1324 39.9794H56.3081L57.6885 36.5967L56.3578 33.3326H57.1522L57.7382 34.8756C57.8673 35.1823 57.9765 35.4988 58.1453 35.934C58.3042 35.4691 58.3936 35.1724 58.5028 34.846L59.049 33.3326H59.8336L58.5326 36.5967L59.913 40.0189L59.1086 39.9794Z" fill="white" fill-opacity="0.5"/>
<path d="M65.3254 39.8607C65.0134 39.9982 64.6728 40.0592 64.3323 40.0387C63.0313 40.0387 62.0879 38.9903 62.0879 36.7252C62.0879 34.0942 63.3988 33.2535 64.4515 33.2535C64.7394 33.2368 65.0269 33.2947 65.2856 33.4216L65.1168 34.0645C64.9061 33.9654 64.6745 33.9179 64.4415 33.9261C63.7265 33.9261 62.8923 34.6184 62.8923 36.656C62.8923 38.6935 63.6868 39.3661 64.5508 39.3661C64.7939 39.3687 65.0346 39.3181 65.2559 39.2178L65.3254 39.8607Z" fill="white" fill-opacity="0.5"/>
<path d="M66.2095 33.3129H66.9742V39.3365H68.861V39.9794H66.2095V33.3129Z" fill="white" fill-opacity="0.5"/>
<path d="M72.8232 36.5967C72.8232 39.0991 71.9592 40.0585 70.837 40.0585C69.7149 40.0585 69.0396 38.8815 69.0396 36.5967C69.0396 34.3118 69.8241 33.1942 71.0257 33.1942C72.2274 33.1942 72.8232 34.4701 72.8232 36.5967ZM69.844 36.5967C69.844 37.9715 70.122 39.3365 70.9562 39.3365C71.7904 39.3365 72.0486 37.8825 72.0486 36.5769C72.0486 35.2713 71.8202 33.8568 70.9463 33.8568C70.0724 33.8568 69.8241 35.291 69.8241 36.6461L69.844 36.5967Z" fill="white" fill-opacity="0.5"/>
<path d="M74.3924 33.9953H73.1709V33.3129H76.3686V33.9953H75.1471V39.9794H74.3924V33.9953Z" fill="white" fill-opacity="0.5"/>
<path d="M77.9774 33.3129V36.1713H79.8543V33.3129H80.619V39.9794H79.8543V36.8637H77.9774V39.9794H77.2227V33.3129H77.9774Z" fill="white" fill-opacity="0.5"/>
<path d="M82.6846 33.3129V39.9794H81.9199V33.3129H82.6846Z" fill="white" fill-opacity="0.5"/>
<path d="M83.9956 39.9794V33.3129H84.7106L85.9421 36.4384C86.2201 37.1506 86.5677 38.0407 86.7961 38.7628C86.7365 37.7143 86.7067 36.8538 86.7067 35.6966V33.3129H87.392V39.9794H86.667L85.4058 36.7747C85.1377 36.1021 84.8596 35.3405 84.6212 34.5097C84.6808 35.3998 84.6908 36.2505 84.6908 37.6748V39.9794H83.9956Z" fill="white" fill-opacity="0.5"/>
<path d="M92.0001 39.8112C91.6195 39.9569 91.216 40.0339 90.8084 40.0387C90.513 40.0539 90.2179 40.0031 89.9448 39.8902C89.6716 39.7773 89.4272 39.605 89.2294 39.3859C88.6472 38.6293 88.3644 37.6859 88.4349 36.7351C88.4349 34.1437 89.7657 33.2535 90.9474 33.2535C91.2888 33.2353 91.6296 33.2998 91.9405 33.4414L91.7717 34.0942C91.5298 33.9808 91.2642 33.9265 90.9971 33.936C90.1728 33.936 89.2592 34.5987 89.2592 36.6659C89.2592 38.7331 90.0437 39.3859 90.8481 39.3859C91.0076 39.3938 91.167 39.3668 91.3149 39.3068V37.1308H90.3714V36.4978H91.9604L92.0001 39.8112Z" fill="white" fill-opacity="0.5"/>
</g>
<defs>
<clipPath id="clip0_283_160">
<rect width="92" height="44.9545" fill="white"/>
</clipPath>
</defs>
</svg>
