<svg width="32" height="32" viewBox="0 0 32 32" fill="none" xmlns="http://www.w3.org/2000/svg">
<path d="M29.3333 0H2.66667C1.95942 0 1.28115 0.280952 0.781049 0.781049C0.280952 1.28115 0 1.95942 0 2.66667L0 29.3333C0 30.0406 0.280952 30.7189 0.781049 31.219C1.28115 31.719 1.95942 32 2.66667 32H29.3333C30.0406 32 30.7189 31.719 31.219 31.219C31.719 30.7189 32 30.0406 32 29.3333V2.66667C32 1.95942 31.719 1.28115 31.219 0.781049C30.7189 0.280952 30.0406 0 29.3333 0V0ZM24.68 18.8533C26.3733 20.9333 26.6667 21.3333 26.6667 21.72C26.6667 22.6667 25.5867 22.6667 24.44 22.6667H22.2267C21.8667 22.6667 21.3867 22.2267 20.64 21.5467C19.8933 20.8667 18.7733 19.8133 18.2267 19.8133C18.0533 19.8133 18.0133 20.1333 17.96 20.8533C17.9067 21.5733 17.84 22.6667 16.8933 22.6667H15.12C11.48 22.6667 5.78667 13.72 5.34667 10.8533C5.34387 10.8223 5.34387 10.791 5.34667 10.76C5.34488 10.6994 5.35529 10.639 5.37727 10.5824C5.39925 10.5259 5.43236 10.4743 5.47464 10.4308C5.51691 10.3873 5.56749 10.3527 5.62338 10.3291C5.67927 10.3055 5.73933 10.2933 5.8 10.2933H9.33333C9.43022 10.2888 9.52589 10.3164 9.60546 10.3719C9.68503 10.4273 9.74405 10.5075 9.77333 10.6C10.5333 12.76 12.0933 15.7867 13.2267 16C13.3261 15.2086 13.3617 14.4105 13.3333 13.6133C13.3333 11.5733 12.84 11.2267 12.84 11.2267C12.7838 11.2201 12.7295 11.2024 12.6802 11.1746C12.6308 11.1468 12.5876 11.1095 12.5528 11.0648C12.5181 11.0202 12.4926 10.969 12.4778 10.9144C12.463 10.8598 12.4592 10.8028 12.4667 10.7467C12.4533 10.0667 13.3333 9.33333 15.56 9.33333C16.8267 9.33333 17.28 9.33333 17.5733 9.66667C17.758 9.92027 17.8347 10.2367 17.7867 10.5467V14.5467C17.7867 15.48 18.04 15.9733 18.2267 15.9733C19.7347 14.4324 20.942 12.6237 21.7867 10.64C21.8024 10.5339 21.8553 10.4369 21.9358 10.3661C22.0164 10.2953 22.1194 10.2553 22.2267 10.2533H26.2267C26.3481 10.2602 26.462 10.3143 26.5442 10.4039C26.6264 10.4936 26.6703 10.6118 26.6667 10.7333C26.6667 11.08 26.36 11.6533 24.6533 14.3467C24.08 15.2667 23.32 16.4933 23.12 16.92C23.3733 17.3333 24.12 18.2 24.68 18.8533Z" fill="#333333"/>
</svg>
